<mxfile host="65bd71144e">
    <diagram id="PdYEQref-OjlzR1hpN0g" name="Page-1">
        <mxGraphModel dx="496" dy="516" grid="0" gridSize="10" guides="1" tooltips="1" connect="1" arrows="1" fold="1" page="1" pageScale="1" pageWidth="4000" pageHeight="4000" math="0" shadow="0">
            <root>
                <mxCell id="0"/>
                <mxCell id="1" parent="0"/>
                <mxCell id="3" value="if user is already registered" style="shape=note;whiteSpace=wrap;html=1;backgroundOutline=1;darkOpacity=0.05;fontSize=13;" vertex="1" parent="1">
                    <mxGeometry x="790" y="950" width="170" height="100" as="geometry"/>
                </mxCell>
                <mxCell id="4" value="" style="endArrow=none;dashed=1;html=1;dashPattern=1 3;strokeWidth=2;exitX=1.008;exitY=0.588;exitDx=0;exitDy=0;exitPerimeter=0;entryX=-0.015;entryY=0.599;entryDx=0;entryDy=0;entryPerimeter=0;fontSize=13;" edge="1" parent="1" source="3" target="7">
                    <mxGeometry width="50" height="50" relative="1" as="geometry">
                        <mxPoint x="1130" y="1110" as="sourcePoint"/>
                        <mxPoint x="1060" y="1010" as="targetPoint"/>
                        <Array as="points">
                            <mxPoint x="1000" y="1010"/>
                        </Array>
                    </mxGeometry>
                </mxCell>
                <mxCell id="11" style="edgeStyle=none;html=1;entryX=0;entryY=0.5;entryDx=0;entryDy=0;fontSize=13;" edge="1" parent="1" source="7" target="9">
                    <mxGeometry relative="1" as="geometry"/>
                </mxCell>
                <mxCell id="7" value="" style="ellipse;whiteSpace=wrap;html=1;aspect=fixed;fontSize=13;fillColor=#000000;" vertex="1" parent="1">
                    <mxGeometry x="1010" y="980" width="50" height="50" as="geometry"/>
                </mxCell>
                <mxCell id="13" style="edgeStyle=none;html=1;entryX=0.5;entryY=0;entryDx=0;entryDy=0;fontSize=13;exitX=1;exitY=0.25;exitDx=0;exitDy=0;" edge="1" parent="1" source="9" target="12">
                    <mxGeometry relative="1" as="geometry">
                        <Array as="points">
                            <mxPoint x="1360" y="990"/>
                            <mxPoint x="1360" y="930"/>
                            <mxPoint x="1480" y="930"/>
                        </Array>
                    </mxGeometry>
                </mxCell>
                <mxCell id="16" style="edgeStyle=none;html=1;entryX=1;entryY=0.75;entryDx=0;entryDy=0;fontSize=13;exitX=0;exitY=0.5;exitDx=0;exitDy=0;" edge="1" parent="1" source="12" target="9">
                    <mxGeometry relative="1" as="geometry">
                        <mxPoint x="1390" y="1090" as="sourcePoint"/>
                        <Array as="points">
                            <mxPoint x="1440" y="1040"/>
                            <mxPoint x="1400" y="1040"/>
                            <mxPoint x="1360" y="1040"/>
                            <mxPoint x="1360" y="1020"/>
                        </Array>
                    </mxGeometry>
                </mxCell>
                <mxCell id="9" value="Enter email and password" style="rounded=1;whiteSpace=wrap;html=1;fontSize=13;fillColor=#FFFFFF;" vertex="1" parent="1">
                    <mxGeometry x="1110" y="975" width="160" height="60" as="geometry"/>
                </mxCell>
                <mxCell id="23" style="edgeStyle=none;html=1;fontSize=13;exitX=0.5;exitY=1;exitDx=0;exitDy=0;" edge="1" parent="1" source="12" target="20">
                    <mxGeometry relative="1" as="geometry">
                        <mxPoint x="1160" y="1090" as="targetPoint"/>
                        <mxPoint x="1560" y="1010" as="sourcePoint"/>
                        <Array as="points">
                            <mxPoint x="1480" y="1090"/>
                            <mxPoint x="1160" y="1090"/>
                            <mxPoint x="1120" y="1090"/>
                        </Array>
                    </mxGeometry>
                </mxCell>
                <mxCell id="24" value="Yes&lt;br style=&quot;font-size: 13px;&quot;&gt;" style="edgeLabel;html=1;align=center;verticalAlign=middle;resizable=0;points=[];fontSize=13;" vertex="1" connectable="0" parent="23">
                    <mxGeometry x="-0.4135" y="4" relative="1" as="geometry">
                        <mxPoint x="80" y="-24" as="offset"/>
                    </mxGeometry>
                </mxCell>
                <mxCell id="12" value="" style="rhombus;whiteSpace=wrap;html=1;fontSize=13;fillColor=#FFFFFF;" vertex="1" parent="1">
                    <mxGeometry x="1440" y="980" width="80" height="80" as="geometry"/>
                </mxCell>
                <mxCell id="17" value="No" style="text;html=1;align=center;verticalAlign=middle;resizable=0;points=[];autosize=1;strokeColor=none;fillColor=none;fontSize=13;" vertex="1" parent="1">
                    <mxGeometry x="1370" y="1005" width="40" height="30" as="geometry"/>
                </mxCell>
                <mxCell id="18" value="if email and password match" style="text;html=1;align=center;verticalAlign=middle;resizable=0;points=[];autosize=1;strokeColor=none;fillColor=none;fontSize=13;rotation=0;" vertex="1" parent="1">
                    <mxGeometry x="1318" y="905" width="183" height="28" as="geometry"/>
                </mxCell>
                <mxCell id="20" value="" style="line;strokeWidth=4;html=1;perimeter=backbonePerimeter;points=[];outlineConnect=0;fontSize=13;fillColor=#FFFFFF;" vertex="1" parent="1">
                    <mxGeometry x="640" y="1125" width="1000" height="10" as="geometry"/>
                </mxCell>
                <mxCell id="36" style="edgeStyle=none;html=1;entryX=0.5;entryY=0.4;entryDx=0;entryDy=0;entryPerimeter=0;fontSize=13;" edge="1" parent="1" source="27">
                    <mxGeometry relative="1" as="geometry">
                        <mxPoint x="880" y="1328" as="targetPoint"/>
                    </mxGeometry>
                </mxCell>
                <mxCell id="27" value="User Dashboard" style="rounded=1;whiteSpace=wrap;html=1;fontSize=13;fillColor=#FFFFFF;" vertex="1" parent="1">
                    <mxGeometry x="820" y="1220" width="120" height="60" as="geometry"/>
                </mxCell>
                <mxCell id="37" style="edgeStyle=none;html=1;fontSize=13;entryX=0.444;entryY=0.667;entryDx=0;entryDy=0;entryPerimeter=0;" edge="1" parent="1" source="28">
                    <mxGeometry relative="1" as="geometry">
                        <mxPoint x="1433.1599999999999" y="1333.3400000000001" as="targetPoint"/>
                    </mxGeometry>
                </mxCell>
                <mxCell id="28" value="Admin Dashboard" style="rounded=1;whiteSpace=wrap;html=1;fontSize=13;fillColor=#FFFFFF;" vertex="1" parent="1">
                    <mxGeometry x="1370" y="1220" width="120" height="60" as="geometry"/>
                </mxCell>
                <mxCell id="29" value="" style="endArrow=classic;html=1;fontSize=13;entryX=0.5;entryY=0;entryDx=0;entryDy=0;" edge="1" parent="1" source="20" target="27">
                    <mxGeometry width="50" height="50" relative="1" as="geometry">
                        <mxPoint x="1120" y="1140" as="sourcePoint"/>
                        <mxPoint x="1100" y="1130" as="targetPoint"/>
                    </mxGeometry>
                </mxCell>
                <mxCell id="30" value="" style="endArrow=classic;html=1;fontSize=13;entryX=0.5;entryY=0;entryDx=0;entryDy=0;" edge="1" parent="1" source="20" target="28">
                    <mxGeometry width="50" height="50" relative="1" as="geometry">
                        <mxPoint x="1020" y="1130" as="sourcePoint"/>
                        <mxPoint x="1100" y="1130" as="targetPoint"/>
                    </mxGeometry>
                </mxCell>
                <mxCell id="115" style="edgeStyle=none;html=1;fontSize=13;" edge="1" parent="1" source="38">
                    <mxGeometry relative="1" as="geometry">
                        <mxPoint x="1480" y="1720" as="targetPoint"/>
                        <Array as="points">
                            <mxPoint x="1520" y="1680"/>
                        </Array>
                    </mxGeometry>
                </mxCell>
                <mxCell id="38" value="Update Database" style="rounded=1;whiteSpace=wrap;html=1;fontSize=13;fillColor=#FFFFFF;" vertex="1" parent="1">
                    <mxGeometry x="1450" y="1610" width="120" height="30" as="geometry"/>
                </mxCell>
                <mxCell id="40" value="" style="rounded=1;whiteSpace=wrap;html=1;fontSize=13;fillColor=#FFFFFF;" vertex="1" parent="1">
                    <mxGeometry y="1400" width="120" height="60" as="geometry"/>
                </mxCell>
                <mxCell id="122" style="edgeStyle=none;html=1;fontSize=13;" edge="1" parent="1" source="41">
                    <mxGeometry relative="1" as="geometry">
                        <mxPoint x="800" y="1720" as="targetPoint"/>
                    </mxGeometry>
                </mxCell>
                <mxCell id="41" value="Add Property" style="rounded=1;whiteSpace=wrap;html=1;fontSize=13;fillColor=#FFFFFF;" vertex="1" parent="1">
                    <mxGeometry x="650" y="1410" width="80" height="30" as="geometry"/>
                </mxCell>
                <mxCell id="42" value="Delete user" style="rounded=1;whiteSpace=wrap;html=1;fontSize=13;fillColor=#FFFFFF;" vertex="1" parent="1">
                    <mxGeometry x="1512.5" y="1500" width="60" height="30" as="geometry"/>
                </mxCell>
                <mxCell id="89" value="" style="edgeStyle=none;html=1;fontSize=13;" edge="1" parent="1" source="44" target="87">
                    <mxGeometry relative="1" as="geometry"/>
                </mxCell>
                <mxCell id="44" value="View Property&amp;nbsp;" style="rounded=1;whiteSpace=wrap;html=1;fontSize=13;fillColor=#FFFFFF;" vertex="1" parent="1">
                    <mxGeometry x="1250" y="1410" width="90" height="30" as="geometry"/>
                </mxCell>
                <mxCell id="113" style="edgeStyle=none;html=1;fontSize=13;" edge="1" parent="1" source="46">
                    <mxGeometry relative="1" as="geometry">
                        <mxPoint x="1440" y="1720" as="targetPoint"/>
                        <Array as="points">
                            <mxPoint x="1380" y="1600"/>
                        </Array>
                    </mxGeometry>
                </mxCell>
                <mxCell id="46" value="Change Password" style="rounded=1;whiteSpace=wrap;html=1;fontSize=13;fillColor=#FFFFFF;" vertex="1" parent="1">
                    <mxGeometry x="1370" y="1410" width="60" height="30" as="geometry"/>
                </mxCell>
                <mxCell id="71" style="edgeStyle=none;html=1;fontSize=13;" edge="1" parent="1" source="48" target="56">
                    <mxGeometry relative="1" as="geometry"/>
                </mxCell>
                <mxCell id="48" value="View User" style="rounded=1;whiteSpace=wrap;html=1;fontSize=13;fillColor=#FFFFFF;" vertex="1" parent="1">
                    <mxGeometry x="1465" y="1410" width="60" height="30" as="geometry"/>
                </mxCell>
                <mxCell id="56" value="" style="line;strokeWidth=4;html=1;perimeter=backbonePerimeter;points=[];outlineConnect=0;fontSize=13;fillColor=#FFFFFF;" vertex="1" parent="1">
                    <mxGeometry x="1440" y="1470" width="110" height="10" as="geometry"/>
                </mxCell>
                <mxCell id="86" style="edgeStyle=none;html=1;entryX=0.5;entryY=0;entryDx=0;entryDy=0;fontSize=13;" edge="1" parent="1" source="59" target="85">
                    <mxGeometry relative="1" as="geometry"/>
                </mxCell>
                <mxCell id="59" value="" style="line;strokeWidth=4;html=1;perimeter=backbonePerimeter;points=[];outlineConnect=0;fontSize=13;fillColor=#FFFFFF;" vertex="1" parent="1">
                    <mxGeometry x="1350" y="1330" width="160" height="10" as="geometry"/>
                </mxCell>
                <mxCell id="117" style="edgeStyle=none;html=1;entryX=0.5;entryY=0;entryDx=0;entryDy=0;fontSize=13;" edge="1" parent="1" source="60" target="90">
                    <mxGeometry relative="1" as="geometry">
                        <Array as="points">
                            <mxPoint x="880" y="1370"/>
                        </Array>
                    </mxGeometry>
                </mxCell>
                <mxCell id="60" value="" style="line;strokeWidth=4;html=1;perimeter=backbonePerimeter;points=[];outlineConnect=0;fontSize=13;fillColor=#FFFFFF;" vertex="1" parent="1">
                    <mxGeometry x="800" y="1330" width="160" height="10" as="geometry"/>
                </mxCell>
                <mxCell id="63" value="Edit user" style="rounded=1;whiteSpace=wrap;html=1;fontSize=13;fillColor=#FFFFFF;" vertex="1" parent="1">
                    <mxGeometry x="1420" y="1500" width="60" height="30" as="geometry"/>
                </mxCell>
                <mxCell id="84" style="edgeStyle=none;html=1;fontSize=13;" edge="1" parent="1" source="67" target="38">
                    <mxGeometry relative="1" as="geometry"/>
                </mxCell>
                <mxCell id="67" value="" style="line;strokeWidth=4;html=1;perimeter=backbonePerimeter;points=[];outlineConnect=0;fontSize=13;fillColor=#FFFFFF;" vertex="1" parent="1">
                    <mxGeometry x="1430" y="1580" width="140" height="10" as="geometry"/>
                </mxCell>
                <mxCell id="73" value="" style="endArrow=classic;html=1;fontSize=13;" edge="1" parent="1" source="56">
                    <mxGeometry width="50" height="50" relative="1" as="geometry">
                        <mxPoint x="1262.5" y="1390" as="sourcePoint"/>
                        <mxPoint x="1452.5" y="1500" as="targetPoint"/>
                    </mxGeometry>
                </mxCell>
                <mxCell id="75" value="" style="endArrow=classic;html=1;fontSize=13;entryX=0.5;entryY=0;entryDx=0;entryDy=0;" edge="1" parent="1" source="59" target="44">
                    <mxGeometry width="50" height="50" relative="1" as="geometry">
                        <mxPoint x="1360" y="1520" as="sourcePoint"/>
                        <mxPoint x="1375" y="1410" as="targetPoint"/>
                    </mxGeometry>
                </mxCell>
                <mxCell id="76" value="" style="endArrow=classic;html=1;fontSize=13;" edge="1" parent="1" source="59" target="46">
                    <mxGeometry width="50" height="50" relative="1" as="geometry">
                        <mxPoint x="1360" y="1520" as="sourcePoint"/>
                        <mxPoint x="1440" y="1520" as="targetPoint"/>
                    </mxGeometry>
                </mxCell>
                <mxCell id="77" value="" style="endArrow=classic;html=1;fontSize=13;entryX=0.5;entryY=0;entryDx=0;entryDy=0;" edge="1" parent="1" source="59" target="48">
                    <mxGeometry width="50" height="50" relative="1" as="geometry">
                        <mxPoint x="1360" y="1520" as="sourcePoint"/>
                        <mxPoint x="1600" y="1400" as="targetPoint"/>
                    </mxGeometry>
                </mxCell>
                <mxCell id="78" value="" style="endArrow=classic;html=1;fontSize=13;entryX=0.5;entryY=0;entryDx=0;entryDy=0;" edge="1" parent="1" source="56" target="42">
                    <mxGeometry width="50" height="50" relative="1" as="geometry">
                        <mxPoint x="1262.5" y="1520" as="sourcePoint"/>
                        <mxPoint x="1342.5" y="1520" as="targetPoint"/>
                    </mxGeometry>
                </mxCell>
                <mxCell id="79" value="" style="endArrow=classic;html=1;fontSize=13;exitX=0.5;exitY=1;exitDx=0;exitDy=0;" edge="1" parent="1" source="63" target="67">
                    <mxGeometry width="50" height="50" relative="1" as="geometry">
                        <mxPoint x="1446.6800000000003" y="1532.1600000000003" as="sourcePoint"/>
                        <mxPoint x="1492.5" y="1570" as="targetPoint"/>
                    </mxGeometry>
                </mxCell>
                <mxCell id="81" value="" style="endArrow=classic;html=1;fontSize=13;exitX=0.5;exitY=1;exitDx=0;exitDy=0;" edge="1" parent="1" source="42" target="67">
                    <mxGeometry width="50" height="50" relative="1" as="geometry">
                        <mxPoint x="1412.5" y="1550" as="sourcePoint"/>
                        <mxPoint x="1492.5" y="1550" as="targetPoint"/>
                    </mxGeometry>
                </mxCell>
                <mxCell id="116" style="edgeStyle=none;html=1;fontSize=13;" edge="1" parent="1" source="85">
                    <mxGeometry relative="1" as="geometry">
                        <mxPoint x="1510" y="1720" as="targetPoint"/>
                        <Array as="points">
                            <mxPoint x="1640" y="1590"/>
                        </Array>
                    </mxGeometry>
                </mxCell>
                <mxCell id="85" value="Add User" style="rounded=1;whiteSpace=wrap;html=1;fontSize=13;fillColor=#FFFFFF;" vertex="1" parent="1">
                    <mxGeometry x="1550" y="1410" width="60" height="30" as="geometry"/>
                </mxCell>
                <mxCell id="114" style="edgeStyle=none;html=1;fontSize=13;" edge="1" parent="1" source="87">
                    <mxGeometry relative="1" as="geometry">
                        <mxPoint x="1400" y="1720" as="targetPoint"/>
                        <Array as="points">
                            <mxPoint x="1290" y="1620"/>
                        </Array>
                    </mxGeometry>
                </mxCell>
                <mxCell id="87" value="Update Property" style="rounded=1;whiteSpace=wrap;html=1;fontSize=13;fillColor=#FFFFFF;" vertex="1" parent="1">
                    <mxGeometry x="1250" y="1480" width="90" height="30" as="geometry"/>
                </mxCell>
                <mxCell id="124" style="edgeStyle=none;html=1;fontSize=13;" edge="1" parent="1" source="90">
                    <mxGeometry relative="1" as="geometry">
                        <mxPoint x="830" y="1720" as="targetPoint"/>
                    </mxGeometry>
                </mxCell>
                <mxCell id="90" value="Change Password" style="rounded=1;whiteSpace=wrap;html=1;fontSize=13;fillColor=#FFFFFF;" vertex="1" parent="1">
                    <mxGeometry x="835" y="1410" width="90" height="30" as="geometry"/>
                </mxCell>
                <mxCell id="127" style="edgeStyle=none;html=1;fontSize=13;" edge="1" parent="1" source="91" target="126">
                    <mxGeometry relative="1" as="geometry"/>
                </mxCell>
                <mxCell id="91" value="View Properties" style="rounded=1;whiteSpace=wrap;html=1;fontSize=13;fillColor=#FFFFFF;" vertex="1" parent="1">
                    <mxGeometry x="960" y="1410" width="90" height="30" as="geometry"/>
                </mxCell>
                <mxCell id="123" style="edgeStyle=none;html=1;fontSize=13;" edge="1" parent="1" source="106">
                    <mxGeometry relative="1" as="geometry">
                        <mxPoint x="810" y="1720" as="targetPoint"/>
                    </mxGeometry>
                </mxCell>
                <mxCell id="106" value="Edit Property" style="rounded=1;whiteSpace=wrap;html=1;fontSize=13;fillColor=#FFFFFF;" vertex="1" parent="1">
                    <mxGeometry x="740" y="1410" width="80" height="30" as="geometry"/>
                </mxCell>
                <mxCell id="118" value="" style="endArrow=classic;html=1;fontSize=13;entryX=0.5;entryY=0;entryDx=0;entryDy=0;" edge="1" parent="1" source="60" target="91">
                    <mxGeometry width="50" height="50" relative="1" as="geometry">
                        <mxPoint x="880" y="1530" as="sourcePoint"/>
                        <mxPoint x="930" y="1480" as="targetPoint"/>
                    </mxGeometry>
                </mxCell>
                <mxCell id="119" value="" style="endArrow=classic;html=1;fontSize=13;entryX=0.5;entryY=0;entryDx=0;entryDy=0;" edge="1" parent="1" source="60" target="106">
                    <mxGeometry width="50" height="50" relative="1" as="geometry">
                        <mxPoint x="880" y="1530" as="sourcePoint"/>
                        <mxPoint x="930" y="1480" as="targetPoint"/>
                    </mxGeometry>
                </mxCell>
                <mxCell id="120" value="" style="endArrow=classic;html=1;fontSize=13;entryX=0.5;entryY=0;entryDx=0;entryDy=0;" edge="1" parent="1" source="60" target="41">
                    <mxGeometry width="50" height="50" relative="1" as="geometry">
                        <mxPoint x="880" y="1530" as="sourcePoint"/>
                        <mxPoint x="930" y="1480" as="targetPoint"/>
                    </mxGeometry>
                </mxCell>
                <mxCell id="121" value="" style="line;strokeWidth=4;html=1;perimeter=backbonePerimeter;points=[];outlineConnect=0;fontSize=13;fillColor=#FFFFFF;" vertex="1" parent="1">
                    <mxGeometry x="1315" y="1720" width="330" height="10" as="geometry"/>
                </mxCell>
                <mxCell id="128" style="edgeStyle=none;html=1;fontSize=13;" edge="1" parent="1" source="126">
                    <mxGeometry relative="1" as="geometry">
                        <mxPoint x="840" y="1720" as="targetPoint"/>
                    </mxGeometry>
                </mxCell>
                <mxCell id="126" value="Send messages." style="rounded=1;whiteSpace=wrap;html=1;fontSize=13;fillColor=#FFFFFF;" vertex="1" parent="1">
                    <mxGeometry x="960" y="1520" width="90" height="30" as="geometry"/>
                </mxCell>
                <mxCell id="129" value="" style="line;strokeWidth=4;html=1;perimeter=backbonePerimeter;points=[];outlineConnect=0;fontSize=13;fillColor=#FFFFFF;" vertex="1" parent="1">
                    <mxGeometry x="640" y="1720" width="360" height="10" as="geometry"/>
                </mxCell>
                <mxCell id="133" value="" style="group;fontSize=13;" vertex="1" connectable="0" parent="1">
                    <mxGeometry x="1450" y="1770" width="70" height="70" as="geometry"/>
                </mxCell>
                <mxCell id="134" value="" style="ellipse;whiteSpace=wrap;html=1;aspect=fixed;fontSize=13;fillColor=#FFFFFF;" vertex="1" parent="133">
                    <mxGeometry width="70" height="70" as="geometry"/>
                </mxCell>
                <mxCell id="135" value="" style="ellipse;whiteSpace=wrap;html=1;aspect=fixed;fontSize=13;fillColor=#000000;" vertex="1" parent="133">
                    <mxGeometry x="10" y="10" width="50" height="50" as="geometry"/>
                </mxCell>
                <mxCell id="136" value="" style="endArrow=classic;html=1;fontSize=13;entryX=0.5;entryY=0;entryDx=0;entryDy=0;" edge="1" parent="1" target="134">
                    <mxGeometry width="50" height="50" relative="1" as="geometry">
                        <mxPoint x="1485" y="1725.571428571429" as="sourcePoint"/>
                        <mxPoint x="1540" y="1790" as="targetPoint"/>
                    </mxGeometry>
                </mxCell>
                <mxCell id="141" value="" style="endArrow=classic;html=1;fontSize=13;entryX=0.5;entryY=0;entryDx=0;entryDy=0;" edge="1" target="143" parent="1">
                    <mxGeometry width="50" height="50" relative="1" as="geometry">
                        <mxPoint x="805" y="1725.571428571429" as="sourcePoint"/>
                        <mxPoint x="860" y="1790" as="targetPoint"/>
                    </mxGeometry>
                </mxCell>
                <mxCell id="142" value="" style="group;fontSize=13;" vertex="1" connectable="0" parent="1">
                    <mxGeometry x="770" y="1770" width="70" height="70" as="geometry"/>
                </mxCell>
                <mxCell id="143" value="" style="ellipse;whiteSpace=wrap;html=1;aspect=fixed;fontSize=13;fillColor=#FFFFFF;" vertex="1" parent="142">
                    <mxGeometry width="70" height="70" as="geometry"/>
                </mxCell>
                <mxCell id="144" value="" style="ellipse;whiteSpace=wrap;html=1;aspect=fixed;fontSize=13;fillColor=#000000;" vertex="1" parent="142">
                    <mxGeometry x="10" y="10" width="50" height="50" as="geometry"/>
                </mxCell>
                <mxCell id="149" style="edgeStyle=none;html=1;fontSize=13;" edge="1" parent="1" source="145" target="148">
                    <mxGeometry relative="1" as="geometry"/>
                </mxCell>
                <mxCell id="145" value="Submit Registration Form" style="rounded=1;whiteSpace=wrap;html=1;fontSize=13;fillColor=#FFFFFF;" vertex="1" parent="1">
                    <mxGeometry x="1877" y="1042" width="120" height="60" as="geometry"/>
                </mxCell>
                <mxCell id="147" style="edgeStyle=none;html=1;entryX=0;entryY=0.5;entryDx=0;entryDy=0;fontSize=13;" edge="1" parent="1" source="146" target="145">
                    <mxGeometry relative="1" as="geometry"/>
                </mxCell>
                <mxCell id="146" value="" style="ellipse;whiteSpace=wrap;html=1;aspect=fixed;fontSize=11;fillColor=#000000;" vertex="1" parent="1">
                    <mxGeometry x="1767" y="1053.5" width="37" height="37" as="geometry"/>
                </mxCell>
                <mxCell id="151" style="edgeStyle=none;html=1;entryX=0.029;entryY=0.511;entryDx=0;entryDy=0;entryPerimeter=0;fontSize=13;" edge="1" parent="1" source="148" target="150">
                    <mxGeometry relative="1" as="geometry"/>
                </mxCell>
                <mxCell id="148" value="Validate Form" style="rounded=1;whiteSpace=wrap;html=1;fontSize=13;fillColor=#FFFFFF;" vertex="1" parent="1">
                    <mxGeometry x="2065" y="1042" width="120" height="60" as="geometry"/>
                </mxCell>
                <mxCell id="153" style="edgeStyle=none;html=1;fontSize=13;" edge="1" parent="1" source="150" target="152">
                    <mxGeometry relative="1" as="geometry"/>
                </mxCell>
                <mxCell id="161" value="" style="edgeStyle=none;html=1;fontSize=13;" edge="1" parent="1" source="150" target="152">
                    <mxGeometry relative="1" as="geometry"/>
                </mxCell>
                <mxCell id="162" style="edgeStyle=none;html=1;fontSize=13;entryX=0.467;entryY=1;entryDx=0;entryDy=0;entryPerimeter=0;" edge="1" parent="1" source="150" target="145">
                    <mxGeometry relative="1" as="geometry">
                        <mxPoint x="1936.1061529862254" y="1184.309136641653" as="targetPoint"/>
                        <Array as="points">
                            <mxPoint x="2283" y="1167"/>
                            <mxPoint x="1933" y="1163"/>
                        </Array>
                    </mxGeometry>
                </mxCell>
                <mxCell id="150" value="" style="html=1;whiteSpace=wrap;aspect=fixed;shape=isoRectangle;fontSize=13;fillColor=#FFFFFF;" vertex="1" parent="1">
                    <mxGeometry x="2234" y="1046" width="97" height="58.2" as="geometry"/>
                </mxCell>
                <mxCell id="160" style="edgeStyle=none;html=1;fontSize=13;" edge="1" parent="1" source="152" target="155">
                    <mxGeometry relative="1" as="geometry"/>
                </mxCell>
                <mxCell id="152" value="To Login page" style="rounded=1;whiteSpace=wrap;html=1;fontSize=13;fillColor=#FFFFFF;" vertex="1" parent="1">
                    <mxGeometry x="2374" y="1046" width="100" height="60" as="geometry"/>
                </mxCell>
                <mxCell id="158" value="" style="group" vertex="1" connectable="0" parent="1">
                    <mxGeometry x="2523" y="1062" width="35" height="35" as="geometry"/>
                </mxCell>
                <mxCell id="155" value="" style="ellipse;whiteSpace=wrap;html=1;aspect=fixed;fontSize=11;fillColor=#FFFFFF;" vertex="1" parent="158">
                    <mxGeometry width="35" height="35" as="geometry"/>
                </mxCell>
                <mxCell id="156" value="" style="ellipse;whiteSpace=wrap;html=1;aspect=fixed;fontSize=11;fillColor=#000000;" vertex="1" parent="158">
                    <mxGeometry x="9" y="9" width="17" height="17" as="geometry"/>
                </mxCell>
                <mxCell id="163" value="No" style="text;html=1;align=center;verticalAlign=middle;resizable=0;points=[];autosize=1;strokeColor=none;fillColor=none;fontSize=13;" vertex="1" parent="1">
                    <mxGeometry x="2041" y="1131" width="35" height="28" as="geometry"/>
                </mxCell>
                <mxCell id="164" value="Yes" style="text;html=1;align=center;verticalAlign=middle;resizable=0;points=[];autosize=1;strokeColor=none;fillColor=none;fontSize=13;" vertex="1" parent="1">
                    <mxGeometry x="2330" y="1050" width="39" height="28" as="geometry"/>
                </mxCell>
                <mxCell id="166" value="Enter Current, New and Confirm password ,&amp;nbsp;" style="rounded=1;whiteSpace=wrap;html=1;fontSize=13;fillColor=#FFFFFF;" vertex="1" parent="1">
                    <mxGeometry x="2035" y="1559" width="180" height="60" as="geometry"/>
                </mxCell>
                <mxCell id="167" style="edgeStyle=none;html=1;entryX=0;entryY=0.5;entryDx=0;entryDy=0;fontSize=13;" edge="1" source="168" target="166" parent="1">
                    <mxGeometry relative="1" as="geometry"/>
                </mxCell>
                <mxCell id="168" value="" style="ellipse;whiteSpace=wrap;html=1;aspect=fixed;fontSize=11;fillColor=#000000;" vertex="1" parent="1">
                    <mxGeometry x="1925" y="1570.5" width="37" height="37" as="geometry"/>
                </mxCell>
                <mxCell id="169" style="edgeStyle=none;html=1;entryX=0.029;entryY=0.511;entryDx=0;entryDy=0;entryPerimeter=0;fontSize=13;exitX=1;exitY=0.5;exitDx=0;exitDy=0;" edge="1" source="166" target="174" parent="1">
                    <mxGeometry relative="1" as="geometry">
                        <mxPoint x="2342" y="1582.0070295940545" as="sourcePoint"/>
                    </mxGeometry>
                </mxCell>
                <mxCell id="171" style="edgeStyle=none;html=1;fontSize=13;" edge="1" source="174" target="176" parent="1">
                    <mxGeometry relative="1" as="geometry"/>
                </mxCell>
                <mxCell id="172" value="" style="edgeStyle=none;html=1;fontSize=13;" edge="1" source="174" target="176" parent="1">
                    <mxGeometry relative="1" as="geometry"/>
                </mxCell>
                <mxCell id="173" style="edgeStyle=none;html=1;fontSize=13;exitX=0.499;exitY=0.995;exitDx=0;exitDy=0;exitPerimeter=0;" edge="1" source="174" parent="1">
                    <mxGeometry relative="1" as="geometry">
                        <mxPoint x="2092" y="1612" as="targetPoint"/>
                        <Array as="points">
                            <mxPoint x="2331" y="1675"/>
                            <mxPoint x="2090" y="1671"/>
                        </Array>
                    </mxGeometry>
                </mxCell>
                <mxCell id="174" value="&lt;font style=&quot;font-size: 10px;&quot;&gt;Check Current Password&lt;/font&gt;" style="html=1;whiteSpace=wrap;aspect=fixed;shape=isoRectangle;fontSize=13;fillColor=#FFFFFF;" vertex="1" parent="1">
                    <mxGeometry x="2283" y="1558.9999999999998" width="97" height="58.2" as="geometry"/>
                </mxCell>
                <mxCell id="184" style="edgeStyle=none;html=1;fontSize=13;" edge="1" parent="1" source="176" target="183">
                    <mxGeometry relative="1" as="geometry"/>
                </mxCell>
                <mxCell id="176" value="Process New and Confirm password" style="rounded=1;whiteSpace=wrap;html=1;fontSize=13;fillColor=#FFFFFF;" vertex="1" parent="1">
                    <mxGeometry x="2471" y="1560.1" width="245" height="60" as="geometry"/>
                </mxCell>
                <mxCell id="180" value="No" style="text;html=1;align=center;verticalAlign=middle;resizable=0;points=[];autosize=1;strokeColor=none;fillColor=none;fontSize=13;" vertex="1" parent="1">
                    <mxGeometry x="2167" y="1649" width="35" height="28" as="geometry"/>
                </mxCell>
                <mxCell id="181" value="Yes" style="text;html=1;align=center;verticalAlign=middle;resizable=0;points=[];autosize=1;strokeColor=none;fillColor=none;fontSize=13;" vertex="1" parent="1">
                    <mxGeometry x="2406" y="1560.1" width="39" height="28" as="geometry"/>
                </mxCell>
                <mxCell id="185" style="edgeStyle=none;html=1;fontSize=13;entryX=0.034;entryY=0.825;entryDx=0;entryDy=0;entryPerimeter=0;" edge="1" parent="1" source="183" target="186">
                    <mxGeometry relative="1" as="geometry">
                        <mxPoint x="2591.4999999999995" y="1847.1847630356297" as="targetPoint"/>
                    </mxGeometry>
                </mxCell>
                <mxCell id="187" style="edgeStyle=none;html=1;fontSize=13;" edge="1" parent="1" source="183">
                    <mxGeometry relative="1" as="geometry">
                        <mxPoint x="2718.2697772401752" y="1589.1367043235086" as="targetPoint"/>
                        <Array as="points">
                            <mxPoint x="2781" y="1714.6"/>
                            <mxPoint x="2784" y="1590.6"/>
                        </Array>
                    </mxGeometry>
                </mxCell>
                <mxCell id="183" value="Match password" style="html=1;whiteSpace=wrap;aspect=fixed;shape=isoRectangle;fontSize=13;fillColor=#FFFFFF;" vertex="1" parent="1">
                    <mxGeometry x="2525.17" y="1677.6" width="136.67" height="82" as="geometry"/>
                </mxCell>
                <mxCell id="186" value="Yes" style="text;html=1;align=center;verticalAlign=middle;resizable=0;points=[];autosize=1;strokeColor=none;fillColor=none;fontSize=13;" vertex="1" parent="1">
                    <mxGeometry x="2594" y="1772.6" width="39" height="28" as="geometry"/>
                </mxCell>
                <mxCell id="188" value="No" style="text;html=1;align=center;verticalAlign=middle;resizable=0;points=[];autosize=1;strokeColor=none;fillColor=none;fontSize=13;" vertex="1" parent="1">
                    <mxGeometry x="2692" y="1680.6" width="35" height="28" as="geometry"/>
                </mxCell>
                <mxCell id="194" style="edgeStyle=none;html=1;fontSize=13;" edge="1" parent="1" source="190" target="192">
                    <mxGeometry relative="1" as="geometry"/>
                </mxCell>
                <mxCell id="190" value="&lt;font style=&quot;font-size: 13px;&quot;&gt;update Successfully&lt;/font&gt;" style="rounded=1;whiteSpace=wrap;html=1;fontSize=10;fillColor=#FFFFFF;" vertex="1" parent="1">
                    <mxGeometry x="2537" y="1798" width="120" height="60" as="geometry"/>
                </mxCell>
                <mxCell id="191" value="" style="group" vertex="1" connectable="0" parent="1">
                    <mxGeometry x="2432" y="1808" width="35" height="35" as="geometry"/>
                </mxCell>
                <mxCell id="192" value="" style="ellipse;whiteSpace=wrap;html=1;aspect=fixed;fontSize=11;fillColor=#FFFFFF;" vertex="1" parent="191">
                    <mxGeometry width="35" height="35" as="geometry"/>
                </mxCell>
                <mxCell id="193" value="" style="ellipse;whiteSpace=wrap;html=1;aspect=fixed;fontSize=11;fillColor=#000000;" vertex="1" parent="191">
                    <mxGeometry x="9" y="9" width="17" height="17" as="geometry"/>
                </mxCell>
            </root>
        </mxGraphModel>
    </diagram>
</mxfile>